<?xml version="1.0" encoding="utf-8"?>
<!-- Generator: Adobe Illustrator 24.0.1, SVG Export Plug-In . SVG Version: 6.00 Build 0)  -->
<svg version="1.1" xmlns="http://www.w3.org/2000/svg" xmlns:xlink="http://www.w3.org/1999/xlink" x="0px" y="0px"
	 viewBox="0 0 542 542" style="enable-background:new 0 0 542 542;" xml:space="preserve">
<style type="text/css">
	.st0{fill:none;stroke:#020000;stroke-width:4;stroke-miterlimit:10;}
	.st1{fill:#42210B;}
	.st2{fill:#FBB03B;}
	.st3{fill:#F9F9F9;}
</style>
<g id="Capa_2">
	<circle class="st0" cx="271" cy="272" r="266.5"/>
</g>
<g id="Capa_1">
	<g>
		<path class="st1" d="M271,5.5C123.8,5.5,4.5,124.8,4.5,272S123.8,538.5,271,538.5S537.5,419.2,537.5,272S418.2,5.5,271,5.5z
			 M271,481.8c-115.9,0-209.8-93.9-209.8-209.8S155.1,62.2,271,62.2S480.8,156.1,480.8,272S386.9,481.8,271,481.8z"/>
		<g>
			<g>
				<path class="st2" d="M271,5.5c-34.9,0-69.8,6.9-102,20.3C136.8,39.2,107.3,59,82.7,83.7C58,108.3,38.3,137.9,25,170.1
					C11.7,202.3,4.9,237.2,5,272c0.1,34.8,7,69.6,20.4,101.7c13.4,32.1,33.2,61.5,57.8,86.1c24.6,24.6,54.1,44.3,86.2,57.5
					c32.1,13.3,66.9,20.1,101.6,20.1c34.8,0,69.5-6.8,101.6-20.1c32.1-13.3,61.6-33,86.2-57.5c24.6-24.6,44.4-54,57.8-86.1
					C530,341.6,536.9,306.8,537,272c0-34.8-6.7-69.7-20-101.9c-13.3-32.2-33-61.8-57.6-86.5C434.7,59,405.2,39.2,373,25.8
					C340.8,12.4,305.9,5.5,271,5.5z M271,5.5c34.9,0,69.8,6.8,102,20.2c32.3,13.3,61.8,33.1,86.5,57.8c24.7,24.7,44.6,54.2,58,86.4
					C531,202.1,537.9,237,538,272c0,35-6.8,69.9-20.1,102.3c-13.3,32.3-33.1,62-57.8,86.8c-24.7,24.8-54.4,44.6-86.7,58.1
					C341,532.6,306,539.5,271,539.5c-35,0-70-6.9-102.3-20.4c-32.3-13.4-62-33.3-86.7-58.1c-24.7-24.8-44.5-54.5-57.8-86.8
					C10.8,341.9,4,307,4,272c0.1-35,7-69.9,20.5-102.1c13.4-32.3,33.3-61.8,58-86.4C107.2,58.8,136.7,39,169,25.7
					C201.2,12.3,236.1,5.5,271,5.5z"/>
				<path class="st2" d="M271,481.8c-27.5,0-54.9-5.4-80.3-15.9c-25.4-10.5-48.7-26-68.1-45.5c-19.5-19.4-35.1-42.6-45.7-68
					C66.2,327,60.8,299.5,60.7,272c-0.1-27.5,5.3-55.1,15.8-80.6C87,166,102.6,142.6,122,123c19.5-19.5,42.8-35.2,68.3-45.8
					c25.5-10.6,53.1-16.1,80.6-16.1c27.6,0,55.2,5.5,80.7,16.1c25.5,10.6,48.8,26.2,68.3,45.8c19.5,19.5,35,42.9,45.5,68.4
					c10.5,25.5,15.9,53,15.8,80.6c-0.1,27.5-5.5,55-16.2,80.4c-10.6,25.4-26.2,48.6-45.7,68c-19.5,19.4-42.7,35-68.1,45.5
					C325.9,476.4,298.5,481.8,271,481.8z M271,481.8c27.5,0,54.9-5.5,80.3-16c25.4-10.5,48.6-26.1,68-45.5
					c19.4-19.4,34.9-42.7,45.3-68.1c10.5-25.4,15.8-52.8,15.7-80.2c-0.1-27.4-5.5-54.8-16.1-80c-10.5-25.3-26.1-48.4-45.5-67.7
					c-19.4-19.3-42.5-34.8-67.8-45.2c-25.3-10.5-52.6-15.8-79.9-15.8c-27.3,0-54.7,5.3-79.9,15.8c-25.3,10.4-48.4,25.9-67.8,45.2
					c-19.4,19.3-35,42.4-45.5,67.7c-10.6,25.3-16,52.6-16.1,80c-0.1,27.4,5.3,54.8,15.7,80.2c10.4,25.4,25.9,48.6,45.3,68.1
					c19.4,19.4,42.6,35,68,45.5C216.1,476.3,243.5,481.8,271,481.8z"/>
			</g>
		</g>
	</g>
	<image style="overflow:visible;" width="420" height="421" xlink:href="8B42A11B.png"  transform="matrix(1 0 0 1 61.1 61.5)">
	</image>
</g>
<g id="Capa_3">
	<g>
		<path class="st3" d="M78.1,126.5c5.6-7.2,11.8-13.8,18.3-20.1c6.5-6.3,13.4-12.3,20.6-17.9c14.3-11.2,29.9-20.8,46.2-28.8
			c8.2-4,16.6-7.4,25.1-10.5c4.3-1.4,8.6-3,13-4.2c2.2-0.6,4.4-1.3,6.6-1.9l6.6-1.6c2.2-0.6,4.4-1,6.7-1.4c2.2-0.4,4.4-1,6.7-1.3
			c4.5-0.7,9-1.5,13.5-2l6.8-0.8l6.8-0.5c4.5-0.4,9.1-0.4,13.6-0.5c18.2-0.3,36.4,1.7,54.2,5.5c2.2,0.4,4.4,1,6.6,1.6
			c2.2,0.6,4.4,1.1,6.6,1.7l6.5,1.9l1.6,0.5l1.6,0.6l3.2,1.1c4.3,1.4,8.5,3.2,12.8,4.8c4.2,1.8,8.4,3.6,12.4,5.6
			c16.4,7.9,31.8,17.7,46,29.1c7.1,5.7,13.8,11.8,20.2,18.3c6.3,6.5,12.4,13.3,17.7,20.7c-5.3-7.4-11.5-14.1-17.8-20.5
			c-6.4-6.4-13.2-12.5-20.3-18.1c-14.2-11.3-29.6-21.1-46-28.9c-4.1-2-8.3-3.7-12.4-5.5c-4.2-1.6-8.4-3.4-12.7-4.7l-3.2-1.1L344,47
			l-1.6-0.5l-6.5-1.9c-2.2-0.7-4.4-1.1-6.6-1.7c-2.2-0.5-4.4-1.1-6.6-1.5c-17.7-3.7-35.9-5.7-54-5.4c-4.5,0.1-9.1,0.1-13.6,0.5
			l-6.8,0.4l-6.8,0.8c-4.5,0.4-9,1.3-13.5,1.9c-2.2,0.3-4.4,0.9-6.7,1.3c-2.2,0.5-4.5,0.8-6.6,1.4l-6.6,1.6
			c-2.2,0.5-4.4,1.2-6.5,1.8c-4.4,1.2-8.6,2.7-13,4.1c-8.5,3.1-16.9,6.5-25.1,10.4c-16.3,7.9-31.9,17.4-46.2,28.5
			c-7.2,5.5-14.1,11.4-20.7,17.7C90,112.8,83.7,119.4,78.1,126.5z"/>
	</g>
	<g>
		<path class="st3" d="M78.1,421c5.6,7.1,11.9,13.7,18.5,19.9c6.6,6.3,13.5,12.1,20.7,17.7c14.4,11.1,29.9,20.6,46.2,28.5
			c8.2,3.9,16.6,7.3,25.1,10.4c4.3,1.4,8.6,2.9,13,4.1c2.2,0.6,4.3,1.3,6.5,1.8l6.6,1.6c2.2,0.6,4.4,1,6.6,1.4
			c2.2,0.4,4.4,0.9,6.7,1.3c4.5,0.7,8.9,1.5,13.5,1.9l6.8,0.8l6.8,0.4c4.5,0.4,9.1,0.4,13.6,0.5c18.1,0.3,36.3-1.6,54-5.4
			c2.2-0.4,4.4-1,6.6-1.5c2.2-0.6,4.4-1,6.6-1.7l6.5-1.9l1.6-0.5l1.6-0.5l3.2-1.1c4.3-1.4,8.5-3.1,12.7-4.7
			c4.2-1.8,8.4-3.5,12.4-5.5c16.4-7.8,31.8-17.6,46-28.9c7.1-5.6,13.9-11.7,20.3-18.1c6.4-6.5,12.5-13.2,17.8-20.5
			c-5.3,7.4-11.3,14.2-17.7,20.7c-6.4,6.5-13.1,12.6-20.2,18.3c-14.2,11.4-29.6,21.2-46,29.1c-4.1,2-8.3,3.8-12.4,5.6
			c-4.2,1.6-8.4,3.4-12.8,4.8l-3.2,1.1l-1.6,0.6l-1.6,0.5l-6.5,1.9c-2.2,0.7-4.4,1.1-6.6,1.7c-2.2,0.5-4.4,1.2-6.6,1.6
			c-17.8,3.8-36,5.8-54.2,5.5c-4.5-0.1-9.1-0.1-13.6-0.5l-6.8-0.5l-6.8-0.8c-4.5-0.4-9-1.3-13.5-2c-2.2-0.4-4.5-0.9-6.7-1.3
			c-2.2-0.5-4.5-0.9-6.7-1.4l-6.6-1.6c-2.2-0.5-4.4-1.2-6.6-1.9c-4.4-1.2-8.7-2.8-13-4.2c-8.5-3.1-17-6.6-25.1-10.5
			c-16.3-8-31.9-17.6-46.2-28.8c-7.2-5.6-14.1-11.5-20.6-17.9C89.9,434.8,83.7,428.2,78.1,421z"/>
	</g>
</g>
</svg>
