<?xml version="1.0" encoding="utf-8"?>
<!-- Generator: Adobe Illustrator 16.0.0, SVG Export Plug-In . SVG Version: 6.00 Build 0)  -->
<!DOCTYPE svg PUBLIC "-//W3C//DTD SVG 1.1//EN" "http://www.w3.org/Graphics/SVG/1.1/DTD/svg11.dtd">
<svg version="1.1" id="Capa_1" xmlns="http://www.w3.org/2000/svg" xmlns:xlink="http://www.w3.org/1999/xlink" x="0px" y="0px"
	 width="60px" height="60px" viewBox="0 0 60 60" enable-background="new 0 0 60 60" xml:space="preserve">
<g id="Capa_3">
	<path fill="#00CCCA" stroke="#FFFFFF" stroke-width="3" stroke-miterlimit="10" d="M46.731,10.744
		c-7.337-3.325-15.413-2.258-20.236,2.545c-3.612,3.602-4.279,8.188-4.433,10.015c-1.683,7.132-3.663,13.32-5.582,13.217
		c-0.257-0.01-0.288-0.123-0.688-0.246c-2.586-0.75-4.136,3.16-7.522,3.529C5.326,40.123,1.95,37.67,1.95,37.67l0,0
		c0,0-0.821,0.165,0,1.15c0.215,0.256,0.534,0.718,1.078,1.323c6.496,7.275,11.975,6.886,11.975,6.886
		c1.016,0.133,1.622,0.092,3.109,0.369c2.535,0.473,3.191,1.026,4.875,1.457c0,0,1.601,0.41,9.42-0.441l0,0
		c0,0,13.299-1.806,20.441-15.27c1.457-2.75,3.869-7.5,2.288-12.939c-1.087-3.756-3.602-6.136-4.997-7.275
		C49,12.201,47.86,11.473,46.731,10.744z"/>
</g>
<g id="Capa_5">
	<g>
		<g>
			<path fill="#FFFFFF" d="M9.174,41.939c0.996,0.123,1.991,0.195,2.997,0.246c1.005,0.052,2.001,0.072,3.006,0.052
				c1.006-0.021,2.001-0.062,3.007-0.134c0.247-0.021,0.503-0.041,0.749-0.062l0.749-0.082c0.493-0.062,0.996-0.123,1.488-0.216
				c0.985-0.164,1.97-0.359,2.935-0.625c0.965-0.268,1.919-0.564,2.843-0.955c0.236-0.092,0.462-0.195,0.688-0.297
				c0.226-0.104,0.452-0.206,0.677-0.329c0.215-0.123,0.441-0.226,0.657-0.358l0.646-0.391c0.841-0.544,1.631-1.16,2.35-1.867
				c-0.708,0.718-1.488,1.354-2.319,1.908l-0.636,0.4c-0.215,0.123-0.441,0.236-0.657,0.359s-0.452,0.226-0.677,0.338
				c-0.226,0.104-0.452,0.216-0.688,0.309c-0.236,0.092-0.462,0.195-0.698,0.287l-0.708,0.256l-0.175,0.063l-0.185,0.051
				l-0.359,0.113l-0.359,0.113c-0.123,0.03-0.246,0.061-0.359,0.102c-0.964,0.268-1.95,0.473-2.945,0.637
				c-0.493,0.082-0.996,0.144-1.488,0.205l-0.75,0.082c-0.246,0.031-0.502,0.041-0.749,0.062c-1.005,0.072-2.001,0.124-3.006,0.124
				C13.166,42.319,11.154,42.217,9.174,41.939z"/>
		</g>
		<g>
			<path fill="none" d="M48.179,25.433"/>
		</g>
		<g>
			<path fill="#FFFFFF" d="M45.87,27.742c0.174-0.206,0.358-0.411,0.554-0.605c0.185-0.195,0.38-0.39,0.575-0.585
				c0.194-0.195,0.389-0.38,0.584-0.575l0.298-0.277c0.103-0.093,0.205-0.185,0.308-0.267c-0.092,0.103-0.185,0.206-0.267,0.308
				l-0.287,0.297c-0.185,0.195-0.38,0.39-0.575,0.585s-0.39,0.38-0.584,0.575C46.28,27.373,46.075,27.567,45.87,27.742z"/>
		</g>
		<g>
			<path fill="#FFFFFF" d="M47.84,33.287c-0.236,0.062-0.472,0.082-0.718,0.071c-0.247-0.01-0.482-0.051-0.719-0.102
				c-0.236-0.063-0.462-0.145-0.678-0.247c-0.113-0.052-0.215-0.112-0.318-0.164c-0.102-0.062-0.205-0.134-0.297-0.194
				c0.215,0.102,0.431,0.205,0.656,0.287c0.052,0.02,0.113,0.041,0.164,0.061c0.052,0.021,0.113,0.041,0.164,0.063
				c0.113,0.041,0.227,0.071,0.339,0.103c0.226,0.062,0.462,0.103,0.698,0.123c0.113,0.011,0.236,0.021,0.359,0.021
				C47.593,33.308,47.717,33.308,47.84,33.287z"/>
		</g>
		<g>
			<path fill="#FFFFFF" d="M43.273,38.994c0.082-0.092,0.154-0.195,0.215-0.297c0.063-0.104,0.135-0.205,0.176-0.318
				c0.102-0.216,0.184-0.451,0.246-0.688c0.02-0.123,0.061-0.236,0.071-0.359c0.011-0.062,0.021-0.123,0.03-0.185
				c0-0.062,0.011-0.124,0.021-0.185c0.01-0.063,0.01-0.123,0.01-0.186v-0.184c0-0.124-0.01-0.247-0.01-0.37
				c0.02,0.123,0.041,0.246,0.061,0.37l0.011,0.184c0,0.063,0.011,0.123,0,0.186c0,0.246-0.041,0.502-0.093,0.738
				c-0.061,0.246-0.153,0.482-0.276,0.698C43.623,38.635,43.469,38.84,43.273,38.994z"/>
		</g>
		<g>
			<path fill="#FFFFFF" d="M35.885,38.994c0.134-0.082,0.246-0.185,0.35-0.308c0.051-0.052,0.102-0.112,0.153-0.175
				c0.052-0.061,0.093-0.123,0.144-0.185c0.186-0.246,0.339-0.522,0.473-0.8c0.144-0.277,0.246-0.564,0.359-0.862l0.143-0.441
				c0.041-0.153,0.093-0.298,0.134-0.452c-0.03,0.154-0.062,0.309-0.093,0.463l-0.123,0.451c-0.051,0.154-0.092,0.297-0.153,0.441
				c-0.062,0.144-0.112,0.287-0.185,0.431s-0.145,0.277-0.227,0.411l-0.133,0.194c-0.041,0.062-0.092,0.123-0.144,0.185
				C36.398,38.625,36.172,38.861,35.885,38.994z"/>
		</g>
		<g>
			<path fill="#FFFFFF" d="M34.141,16.388c-0.092,0.236-0.195,0.472-0.287,0.708c-0.093,0.236-0.186,0.472-0.268,0.708
				c-0.174,0.472-0.338,0.954-0.482,1.437c-0.153,0.482-0.276,0.975-0.369,1.467c-0.041,0.246-0.082,0.503-0.102,0.749
				c-0.021,0.257-0.021,0.503,0.01,0.759c-0.104-0.502-0.052-1.016,0.021-1.519c0.082-0.503,0.205-0.995,0.349-1.488
				c0.154-0.482,0.318-0.965,0.514-1.437C33.709,17.301,33.904,16.839,34.141,16.388z"/>
		</g>
		<g>
			<path fill="#FFFFFF" d="M28.62,21.088c0.206,0.195,0.38,0.42,0.523,0.657c0.154,0.236,0.267,0.493,0.37,0.759
				c0.051,0.133,0.082,0.267,0.123,0.41c0.021,0.144,0.062,0.277,0.062,0.421c0.01,0.072,0.01,0.144,0.021,0.216v0.215
				c0,0.072-0.01,0.144-0.01,0.205c-0.01,0.072-0.01,0.144-0.021,0.206c-0.01-0.144,0-0.277-0.01-0.421l-0.021-0.205
				c-0.01-0.072-0.021-0.134-0.031-0.206c-0.021-0.133-0.051-0.267-0.082-0.41c-0.041-0.134-0.072-0.267-0.123-0.4
				c-0.093-0.256-0.206-0.513-0.339-0.759l-0.103-0.185l-0.113-0.175C28.784,21.313,28.702,21.201,28.62,21.088z"/>
		</g>
		<g>
			<path fill="#FFFFFF" d="M24.782,26.578c0.329-0.185,0.677-0.328,1.037-0.441c0.359-0.124,0.729-0.206,1.108-0.247
				c0.379-0.041,0.759-0.031,1.129,0.072c0.185,0.051,0.359,0.123,0.523,0.236c0.154,0.103,0.298,0.236,0.411,0.39
				c-0.256-0.277-0.585-0.472-0.944-0.544c-0.359-0.082-0.739-0.082-1.098-0.051c-0.37,0.041-0.729,0.124-1.088,0.226
				c-0.185,0.051-0.359,0.113-0.534,0.174C25.131,26.434,24.957,26.506,24.782,26.578z"/>
		</g>
		<g>
			<path fill="#FFFFFF" d="M24.823,31.657c0.203-0.317,0.444-0.607,0.708-0.876c0.259-0.278,0.546-0.524,0.862-0.739
				c0.316-0.214,0.656-0.384,1.03-0.467c0.187-0.042,0.375-0.06,0.573-0.037c0.185,0.018,0.374,0.068,0.546,0.151
				c-0.357-0.125-0.738-0.142-1.089-0.037c-0.355,0.096-0.691,0.275-0.993,0.471c-0.307,0.21-0.585,0.452-0.854,0.71
				c-0.139,0.132-0.264,0.269-0.389,0.405C25.063,31.366,24.943,31.513,24.823,31.657z"/>
		</g>
		<g>
			<path fill="#FFFFFF" d="M22.124,36.48c0.216-0.113,0.431-0.216,0.646-0.309c0.216-0.102,0.441-0.194,0.657-0.287
				c0.226-0.092,0.441-0.185,0.667-0.267l0.339-0.123c0.113-0.041,0.226-0.082,0.338-0.112c-0.103,0.051-0.215,0.102-0.318,0.164
				L24.125,35.7c-0.215,0.103-0.441,0.195-0.657,0.288c-0.226,0.092-0.441,0.184-0.667,0.266
				C22.586,36.326,22.36,36.408,22.124,36.48z"/>
		</g>
		<g>
			<path fill="#FFFFFF" d="M35.402,17.199c-0.133,0.051-0.256,0.092-0.39,0.154c-0.123,0.051-0.257,0.113-0.369,0.185
				c-0.247,0.133-0.472,0.277-0.688,0.452s-0.4,0.369-0.564,0.595l-0.112,0.174c-0.031,0.062-0.063,0.123-0.094,0.185l-0.051,0.092
				c-0.01,0.031-0.021,0.062-0.031,0.093c-0.02,0.062-0.051,0.133-0.071,0.195c0.052-0.277,0.144-0.544,0.298-0.78
				c0.154-0.236,0.338-0.452,0.564-0.626c0.226-0.175,0.461-0.329,0.719-0.441C34.859,17.342,35.125,17.25,35.402,17.199z"/>
		</g>
		<g>
			<path fill="#FFFFFF" d="M49.81,25.751c-0.112,0-0.225,0-0.328,0c-0.113,0-0.215,0.01-0.328,0.021
				c-0.215,0.021-0.432,0.051-0.646,0.103c-0.215,0.041-0.421,0.113-0.626,0.185c-0.052,0.021-0.103,0.041-0.153,0.062l-0.154,0.072
				c-0.104,0.041-0.195,0.103-0.298,0.144c0.175-0.134,0.37-0.257,0.575-0.349c0.102-0.051,0.205-0.082,0.307-0.123
				c0.104-0.031,0.217-0.062,0.329-0.092c0.216-0.051,0.441-0.082,0.667-0.082C49.358,25.69,49.585,25.7,49.81,25.751z"/>
		</g>
		<g>
			<path fill="#FFFFFF" d="M17.465,45.798c0.277-0.03,0.554-0.093,0.821-0.175c0.267-0.071,0.534-0.174,0.78-0.287
				c0.502-0.226,0.985-0.523,1.396-0.893c0.42-0.359,0.77-0.801,1.046-1.283c0.277-0.482,0.482-1.006,0.626-1.539
				c-0.031,0.134-0.062,0.277-0.092,0.41c-0.041,0.134-0.072,0.268-0.123,0.4l-0.072,0.195c-0.021,0.062-0.051,0.133-0.082,0.195
				c-0.051,0.133-0.123,0.256-0.185,0.379c-0.267,0.493-0.626,0.944-1.046,1.314c-0.421,0.369-0.914,0.677-1.426,0.882
				C18.574,45.623,18.02,45.768,17.465,45.798z"/>
		</g>
		<g>
			<path fill="#FFFFFF" d="M14.838,38.07c-0.092,0.123-0.174,0.257-0.236,0.4c-0.031,0.072-0.062,0.145-0.093,0.216
				c-0.021,0.071-0.051,0.144-0.062,0.216c-0.072,0.297-0.072,0.615,0.031,0.893c0.103,0.287,0.288,0.533,0.503,0.738
				c0.103,0.113,0.236,0.195,0.359,0.287c0.133,0.082,0.256,0.165,0.39,0.236c0.267,0.154,0.554,0.268,0.842,0.38
				c0.287,0.103,0.585,0.206,0.882,0.288c0.298,0.082,0.595,0.153,0.903,0.215c0.298,0.062,0.605,0.113,0.914,0.113
				c-0.154,0.02-0.308,0.01-0.462,0c-0.154-0.011-0.308-0.031-0.462-0.052c-0.308-0.052-0.615-0.112-0.913-0.185
				c-0.605-0.154-1.19-0.359-1.745-0.656c-0.144-0.072-0.267-0.164-0.4-0.247c-0.123-0.103-0.257-0.185-0.359-0.298
				c-0.226-0.215-0.421-0.472-0.513-0.779c-0.092-0.309-0.082-0.637,0-0.934c0.021-0.072,0.051-0.145,0.072-0.227
				c0.031-0.071,0.062-0.143,0.103-0.215C14.644,38.316,14.736,38.184,14.838,38.07z"/>
		</g>
		<g>
			<path fill="#FFFFFF" d="M22.719,46.701c-0.277-0.145-0.534-0.318-0.77-0.523s-0.452-0.432-0.626-0.688
				c-0.174-0.257-0.297-0.564-0.328-0.873c-0.01-0.153,0-0.317,0.031-0.472c0.031-0.153,0.092-0.298,0.174-0.431
				c-0.113,0.287-0.164,0.596-0.123,0.893c0.051,0.298,0.164,0.574,0.338,0.831c0.164,0.257,0.37,0.482,0.595,0.688
				c0.113,0.103,0.226,0.206,0.349,0.298C22.463,46.516,22.586,46.608,22.719,46.701z"/>
		</g>
		<g>
			<path fill="#FFFFFF" d="M5.562,40.062c0.256,0.153,0.492,0.339,0.729,0.523c0.236,0.194,0.461,0.39,0.667,0.605
				c-0.257-0.153-0.493-0.339-0.729-0.523C5.993,40.482,5.767,40.277,5.562,40.062z"/>
		</g>
		<g>
			<path fill="#FFFFFF" d="M5.562,42.053c0.236-0.041,0.461-0.052,0.698-0.052c0.236,0,0.461,0.011,0.698,0.052
				c-0.236,0.041-0.462,0.051-0.698,0.051C6.023,42.104,5.788,42.094,5.562,42.053z"/>
		</g>
	</g>
</g>
<g id="Capa_2_1_">
	<g>
		<path fill="#FFFFFF" d="M46.033,10.651c0,0-0.688,3.12-1.662,5.429c-0.975,2.309-3.283,7.101-3.283,7.101l0.246,0.411l4.3-9.349
			c0,0,1.457-2.391,1.304-3.263C46.475,10.549,46.033,10.651,46.033,10.651z"/>
		<path fill="#FFFFFF" d="M47.809,2.596c0,0,2.299,3.12,3.448,2.299c1.149-0.821-1.878,1.539-1.878,1.539l-3.643,6.66l-0.154-0.338
			c0,0,0.145-0.585,1.703-5.305C49.184,3.427,47.809,2.596,47.809,2.596z"/>
	</g>
	<path fill="#E6E6E6" d="M49.584,2.678c1.17,0.226,1.971,0.811,2.043,1.334c0.051,0.452-0.145,0.77-0.145,0.77
		c-0.071,0.124-0.174,0.226-0.246,0.277c-0.595,0.4-2.422-0.544-3.201-2.073c-0.104-0.195-0.164-0.359-0.195-0.441
		c0.072-0.062,0.4-0.318,0.872-0.287C49.235,2.278,49.533,2.617,49.584,2.678z"/>
	<path fill="none" stroke="#1D1D1B" stroke-miterlimit="10" d="M56.09,19.333"/>
</g>
<ellipse fill="#C7E2E2" cx="29.687" cy="55.085" rx="27.163" ry="1.067"/>
<g>
	<path fill="#FFFFFF" d="M31.945,36.906c0,0,0.652-0.805,1.585-2.045c0.937-1.237,2.167-2.899,3.319-4.614
		c0.598-0.842,1.1-1.745,1.63-2.552c0.282-0.395,0.493-0.809,0.728-1.183c0.23-0.377,0.447-0.734,0.647-1.064
		c0.416-0.652,0.638-1.253,0.873-1.644c0.214-0.402,0.337-0.631,0.337-0.631l0.047,0.016c0,0-0.081,0.246-0.223,0.677
		c-0.069,0.217-0.16,0.479-0.271,0.779c-0.112,0.298-0.214,0.65-0.41,0.987c-0.372,0.685-0.751,1.524-1.286,2.34
		c-0.549,0.805-1.106,1.685-1.744,2.505c-1.222,1.678-2.505,3.307-3.509,4.494c-0.994,1.195-1.684,1.967-1.684,1.967L31.945,36.906z
		"/>
</g>
<g>
	<circle fill="#D2F7F4" cx="40.167" cy="25.868" r="3.765"/>
	<path fill="#FFFFFF" d="M43.932,25.868c0,0-0.008,0.092-0.023,0.264c-0.031,0.169,0.002,0.432-0.115,0.738
		c-0.05,0.154-0.089,0.332-0.161,0.512c-0.089,0.176-0.184,0.365-0.285,0.568c-0.121,0.191-0.28,0.376-0.434,0.583
		c-0.179,0.182-0.384,0.361-0.594,0.555c-0.469,0.314-1.032,0.634-1.703,0.722c-0.175,0.021-0.313,0.066-0.529,0.068
		c-0.163-0.006-0.328-0.013-0.495-0.019c-0.32,0.003-0.729-0.132-1.089-0.236c-0.711-0.271-1.361-0.766-1.852-1.421
		c-0.476-0.671-0.705-1.5-0.749-2.334c0.061-0.477,0.039-0.732,0.206-1.202c0.104-0.443,0.332-0.784,0.541-1.134
		c0.49-0.655,1.14-1.152,1.853-1.422c0.716-0.231,1.455-0.339,2.112-0.188c0.308,0.024,0.632,0.165,0.929,0.274
		c0.297,0.112,0.53,0.309,0.777,0.449c0.211,0.193,0.415,0.374,0.593,0.556c0.153,0.207,0.313,0.392,0.434,0.583
		c0.102,0.203,0.197,0.393,0.285,0.568c0.072,0.181,0.111,0.358,0.161,0.512c0.117,0.306,0.084,0.57,0.115,0.739
		C43.924,25.776,43.932,25.868,43.932,25.868z M43.932,25.868c0,0-0.011-0.092-0.03-0.264c-0.035-0.168-0.009-0.432-0.134-0.732
		c-0.054-0.151-0.096-0.326-0.173-0.503c-0.098-0.167-0.203-0.347-0.316-0.539c-0.133-0.178-0.302-0.346-0.462-0.533
		c-0.183-0.167-0.404-0.31-0.62-0.465c-0.499-0.242-0.99-0.455-1.627-0.462c-0.604-0.065-1.22,0.124-1.783,0.381
		c-0.555,0.305-1.015,0.764-1.371,1.291c-0.132,0.291-0.306,0.572-0.362,0.855c-0.117,0.219-0.112,0.719-0.15,0.971
		c0.016,0.645,0.196,1.268,0.511,1.828c0.356,0.527,0.815,0.988,1.371,1.292c0.135,0.078,0.276,0.112,0.414,0.174
		c0.135,0.06,0.276,0.118,0.451,0.133c0.164,0.027,0.327,0.054,0.488,0.081c0.107,0.013,0.289-0.006,0.429-0.007
		c0.605,0,1.149-0.225,1.631-0.463c0.216-0.156,0.438-0.299,0.619-0.466c0.161-0.187,0.33-0.356,0.463-0.533
		c0.112-0.193,0.218-0.373,0.315-0.54c0.077-0.177,0.119-0.351,0.173-0.502c0.125-0.3,0.099-0.565,0.134-0.733
		C43.921,25.959,43.932,25.868,43.932,25.868z"/>
</g>
</svg>
