<?xml version="1.0" encoding="utf-8"?>
<!-- Generator: Adobe Illustrator 16.0.0, SVG Export Plug-In . SVG Version: 6.00 Build 0)  -->
<!DOCTYPE svg PUBLIC "-//W3C//DTD SVG 1.1//EN" "http://www.w3.org/Graphics/SVG/1.1/DTD/svg11.dtd">
<svg version="1.1" id="Capa_1" xmlns="http://www.w3.org/2000/svg" xmlns:xlink="http://www.w3.org/1999/xlink" x="0px" y="0px"
	 width="579.808px" height="542.961px" viewBox="0 0 579.808 542.961" enable-background="new 0 0 579.808 542.961"
	 xml:space="preserve">
<g>
	<path fill="#EADBA0" d="M324.603,151.727c-138.459,37.552-177.523,121.592-186.066,185.05c-0.037,0.288-0.073,0.569-0.11,0.856
		c-0.092,0.717-0.196,1.445-0.281,2.154c0.03-0.013,0.061-0.031,0.092-0.043c0,3.396-0.006,6.799-0.006,10.195
		c0,2.148,0,4.297-0.006,6.451c-0.043,0.281-0.08,0.557-0.123,0.838c-0.153,1.021-0.19,2.038-0.177,3.042
		c-0.447,0.22-0.9,0.435-1.347,0.647c-60.827,29.879-110.699,68.908-126.213,135.5c-3.384,14.516,8.782,24.188,20.129,24.188
		c7.35,0,14.357-4.064,16.555-13.496c9.981-42.84,46.799-78.557,91.623-107.266c55.166-35.336,122.479-60.061,166.997-74.278
		c65.74-20.997,129.027-54.854,159.977-119.37c2.305-4.804,6.256-10.691,4.396-15.57c-1.275-3.353-4.389-7.23-3.029-10.984
		c1.027-2.832,6.113-6.301,9.045-6.503c4.344-0.299,7.742,3.575,9.813,6.919c6.215,10.039,1.316,23.678-3.67,34.082
		c-28.334,59.057-84.246,101.231-170.943,128.917c-60.291,19.258-95.071,19.68-124.372,29.706
		c-7.946,2.719-28.369,14.2-31.717,16.147C759.058,549.194,532.152,4.835,532.152,4.835S561.771,87.4,324.603,151.727z"/>
</g>
<g id="Venas_de_la_hoja">
	<g>
		<g>
			<path fill="#F2F2F2" d="M245.272,256.237c0.712,1.919,1.528,3.826,2.092,5.803c0.301,0.982,0.615,1.96,0.899,2.948l0.738,3.001
				l0.738,3.019l0.523,3.038c0.325,2.015,0.763,4.058,0.949,6.102l0.172,1.531c0.027,0.275,0.057,0.463,0.083,0.813l0.042,0.77
				l0.168,3.078c0.038,1.058,0.023,2.063,0.037,3.097l0.011,1.541l-0.065,1.554l-0.145,3.135l-0.321,3.065l-0.168,1.573
				l-0.236,1.523c-0.141,1.002-0.377,2.071-0.558,3.071l-0.328,1.506l-0.177,0.796l-0.206,0.742c-0.267,0.989-0.561,2-0.859,2.973
				c-0.282,0.996-0.66,1.937-1.019,2.978c-0.387,0.952-0.743,1.911-1.164,2.858l-0.306,0.713l-0.153,0.355l-0.076,0.178
				l-0.116,0.238l-0.699,1.373l-0.699,1.373l-0.35,0.686l-0.175,0.344l-0.245,0.406l-1.609,2.627l-0.402,0.658l-0.484,0.676
				l-0.903,1.248l-0.903,1.248c-0.363,0.496-0.667,0.816-1.004,1.233l-0.987,1.183l-0.494,0.592l-0.123,0.147l-0.102,0.117
				l-0.067,0.069l-0.267,0.277l-2.139,2.217l-1.126,1.097c-0.375,0.354-0.785,0.698-1.176,1.047l-1.182,1.038
				c-0.385,0.339-0.842,0.688-1.262,1.029c-0.787,0.604-1.617,1.233-2.455,1.846c-1.739,1.285-3.459,2.295-5.2,3.419l-1.104-1.666
				l2.511-1.735c0.405-0.287,0.868-0.582,1.225-0.863l1.219-0.918c0.791-0.609,1.604-1.272,2.341-1.864
				c0.783-0.646,1.538-1.351,2.229-1.999l1.118-1.029l1.021-1.018l2.1-2.243l0.261-0.279c0.026-0.026,0.126-0.136,0.091-0.096
				l0.12-0.147l0.48-0.594l0.96-1.186c0.301-0.381,0.682-0.822,0.918-1.155l0.876-1.25l0.876-1.25l0.438-0.625l0.363-0.603
				l1.584-2.608l0.198-0.326c0.013-0.021-0.064,0.114-0.026,0.047l0.011-0.021l0.022-0.043l0.043-0.086l0.087-0.17l0.346-0.68
				l0.692-1.359l0.692-1.36l0.043-0.085l0.022-0.043c0.027-0.059-0.025,0.056-0.016,0.035l0.009-0.021l0.075-0.175l0.15-0.351
				l0.301-0.701c0.418-0.941,0.754-1.852,1.131-2.778c0.326-0.946,0.709-1.931,0.986-2.86c0.302-0.926,0.607-1.93,0.884-2.898
				c0.288-0.883,0.482-1.956,0.723-2.914c0.208-0.993,0.462-1.989,0.628-2.979l0.266-1.443l0.204-1.514l0.398-2.987l0.23-3.044
				c0.098-1.018,0.122-2.023,0.137-3.027c0.014-1.011,0.065-1.999,0.05-3.031l-0.062-3.051c0.004-0.925-0.117-2.005-0.159-3.002
				l-0.088-1.523c-0.035-0.48-0.107-1.004-0.159-1.504l-0.341-3.033l-0.34-3.011l-0.531-3.006l-0.531-3.006l-0.672-2.968
				C246.408,260.147,245.797,258.206,245.272,256.237z M245.272,256.237c0.62,1.936,1.328,3.851,1.822,5.832l0.788,2.959
				l0.641,2.985l0.641,2.985l0.458,3.04l0.452,3.02c0.072,0.51,0.159,0.992,0.218,1.525l0.143,1.519
				c0.085,1.034,0.209,1.978,0.241,3.089l0.131,3.051c0.038,1,0.01,2.049,0.018,3.071c0.007,1.03,0.004,2.062-0.07,3.071
				l-0.162,3.048l-0.337,3.071l-0.17,1.518l-0.251,1.564c-0.149,1.021-0.377,2.006-0.564,3.008c-0.233,1.021-0.37,1.962-0.68,3.025
				c-0.261,0.994-0.526,1.943-0.831,2.961c-0.278,1.027-0.646,1.939-0.97,2.92c-0.381,0.963-0.746,1.963-1.148,2.885l-0.296,0.703
				l-0.148,0.353l-0.074,0.176l-0.11,0.229l-0.682,1.365l-0.682,1.364l-0.341,0.683l-0.209,0.41l-0.196,0.328l-1.565,2.62
				l-0.425,0.705l-0.433,0.628l-0.867,1.256l-0.866,1.256c-0.355,0.496-0.645,0.824-0.97,1.242l-0.951,1.193l-0.476,0.598
				l-0.119,0.148l-0.166,0.186l-0.259,0.28l-2.056,2.228l-1.129,1.148l-1.12,1.046c-0.788,0.749-1.518,1.437-2.3,2.093
				c-0.844,0.688-1.605,1.316-2.419,1.955l-1.213,0.928c-0.443,0.348-0.84,0.6-1.263,0.904l-2.498,1.754l-1.104-1.666
				c1.717-1.094,3.55-2.16,5.121-3.313l2.485-1.839c0.376-0.309,0.741-0.576,1.13-0.912l1.141-0.987
				c0.377-0.332,0.761-0.644,1.134-0.991l1.091-1.045l2.155-2.201l0.269-0.275l0.067-0.069c-0.057,0.063,0.02-0.024,0.023-0.028
				l0.124-0.147l0.498-0.588l0.996-1.177c0.311-0.379,0.71-0.812,0.95-1.147l0.912-1.241l0.912-1.242l0.419-0.572l0.407-0.654
				l1.628-2.615l0.102-0.164l0.051-0.082l0.025-0.041l0.013-0.02c0.044-0.076-0.046,0.081-0.033,0.057l0.177-0.342l0.355-0.684
				l0.709-1.368l0.709-1.368l0.044-0.085l0.022-0.043c-0.01,0.022,0.038-0.079-0.019,0.044l0.01-0.021l0.077-0.176l0.154-0.351
				l0.307-0.701c0.42-0.927,0.788-1.894,1.181-2.84c0.318-0.897,0.704-1.867,1.005-2.843c0.327-0.984,0.628-1.94,0.918-2.928
				l0.222-0.738l0.171-0.705l0.361-1.498c0.207-1.018,0.439-1.949,0.609-2.979l0.269-1.518l0.191-1.487l0.389-3.057l0.206-3.019
				l0.099-1.522l0.023-1.541c0.009-1.021,0.046-2.07,0.032-3.065l-0.099-3.078l-0.025-0.771l-0.059-0.722l-0.129-1.535
				c-0.112-2.059-0.469-4.055-0.723-6.105l-0.412-3.054l-0.618-2.992l-0.624-3.009l-0.788-2.979
				C246.607,260.118,245.894,258.203,245.272,256.237z"/>
		</g>
	</g>
	<g>
		<g>
			<path fill="#F2F2F2" d="M345.628,245.237c0.41,0.765,0.875,1.482,1.244,2.287c0.354,0.791,0.758,1.553,1.037,2.382
				c0.297,0.821,0.615,1.626,0.898,2.47l0.695,2.499l0.174,0.625l0.094,0.349l0.064,0.318l0.256,1.272
				c0.16,0.853,0.248,1.742,0.365,2.631c0.049,0.868,0.154,1.711,0.158,2.601c0.004,0.867,0.041,1.816-0.037,2.662
				c-0.045,0.86-0.1,1.723-0.238,2.615c-0.063,0.457-0.1,0.851-0.188,1.361l-0.277,1.267l-0.139,0.633l-0.035,0.158l-0.018,0.079
				l-0.049,0.177l-0.094,0.31l-0.381,1.239c-0.074,0.229-0.107,0.363-0.215,0.67l-0.238,0.604l-0.473,1.207
				c-0.398,0.917-0.707,1.53-1.168,2.454l-0.646,1.124l-0.322,0.562l-0.041,0.07l-0.084,0.127l-0.092,0.133l-0.182,0.269
				l-0.732,1.071c-0.295,0.41-0.543,0.697-0.816,1.054c-0.514,0.683-1.131,1.347-1.707,2.019l-0.018,0.021l-0.035,0.036
				l-0.674,0.673c-0.232,0.226-0.432,0.444-0.697,0.677l-0.758,0.686l-0.189,0.172l-0.205,0.17l-0.369,0.303l-0.738,0.605
				l-0.369,0.303c-0.111,0.092-0.262,0.215-0.389,0.304l-1.547,1.119l-1.24-1.563l1.434-1.238c0.475-0.424,0.926-0.861,1.389-1.29
				l0.344-0.324l0.086-0.081l0.043-0.04l0.023-0.021l0.01-0.01c-0.111,0.104-0.029,0.028-0.053,0.051l0,0l0.004-0.004l0.004-0.004
				l0.166-0.17l0.658-0.681c0.438-0.454,0.852-0.92,1.277-1.38l-0.059,0.066c0.518-0.653,1.086-1.309,1.537-1.961
				c0.482-0.633,0.957-1.341,1.412-2.056l0.307-0.476l0.316-0.549l0.633-1.101c0.32-0.653,0.777-1.53,1.057-2.196l0.475-1.178
				l0.217-0.539l0.193-0.604l0.395-1.206l0.049-0.151l0.025-0.075l0.012-0.038l0.002-0.009c0.027-0.091-0.031,0.113-0.023,0.088
				l0.004-0.019l0.074-0.308l0.152-0.616l0.293-1.194l0.23-1.248c0.18-0.841,0.256-1.644,0.348-2.455
				c0.117-0.798,0.115-1.651,0.18-2.496c0.035-0.829,0.008-1.671,0.008-2.456l-0.188-2.531l-0.084-1.267
				c-0.031-0.421-0.117-0.823-0.172-1.237l-0.377-2.476l-0.553-2.471c-0.164-0.835-0.449-1.617-0.652-2.439
				C346.187,246.842,345.884,246.042,345.628,245.237z M345.628,245.237c0.336,0.779,0.711,1.531,1.014,2.332
				c0.293,0.795,0.625,1.593,0.855,2.405l0.738,2.437l0.574,2.509c0.219,0.841,0.342,1.68,0.441,2.518l0.322,2.518
				c0.055,0.904,0.123,1.753,0.135,2.615c-0.021,0.843,0.029,1.688-0.066,2.571c-0.064,0.873-0.119,1.758-0.264,2.58l-0.182,1.256
				l-0.262,1.282l-0.127,0.622l-0.063,0.311l-0.113,0.403l-0.352,1.22l-0.18,0.608l-0.24,0.646l-0.447,1.188
				c-0.367,0.896-0.682,1.527-1.092,2.398l-0.607,1.114l-0.303,0.558l-0.367,0.601c-0.438,0.722-0.879,1.437-1.42,2.153
				c-0.508,0.74-1.047,1.369-1.574,2.043l-0.016,0.02l-0.043,0.049c-0.43,0.469-0.852,0.95-1.285,1.409l-0.654,0.685l-0.162,0.172
				l-0.227,0.216L339.32,287c-0.459,0.433-0.91,0.879-1.375,1.299l-1.422,1.248l-1.24-1.563l1.553-1.11
				c0.135-0.092,0.229-0.172,0.365-0.281l0.371-0.301l0.742-0.599l0.371-0.3c0.051-0.043,0.146-0.115,0.162-0.134l0.164-0.147
				l0.662-0.592c0.217-0.184,0.451-0.432,0.676-0.648l0.684-0.672l-0.055,0.057c0.555-0.637,1.125-1.231,1.658-1.928
				c0.256-0.326,0.57-0.697,0.779-0.987l0.756-1.054l0.189-0.263l0.094-0.132l0.023-0.033l0.014-0.016l0.006-0.008
				c-0.016,0.023,0.043-0.065-0.035,0.051l0.043-0.068l0.336-0.555l0.672-1.109c0.314-0.619,0.809-1.541,1.105-2.205l0.502-1.195
				l0.25-0.598l0.188-0.563l0.418-1.227l0.107-0.306l0.012-0.038c0.027-0.092-0.031,0.114-0.025,0.09l0.004-0.01l0.004-0.02
				l0.02-0.078l0.041-0.157l0.164-0.628l0.324-1.256c0.072-0.338,0.141-0.804,0.211-1.2c0.164-0.813,0.252-1.672,0.328-2.537
				c0.045-0.446,0.092-0.841,0.096-1.26l0.059-1.259c0.043-0.839-0.018-1.722-0.021-2.581c-0.068-0.828-0.102-1.667-0.215-2.521
				l-0.17-1.286l-0.041-0.322l-0.055-0.281l-0.129-0.636l-0.51-2.545c-0.211-0.812-0.467-1.64-0.697-2.463
				c-0.205-0.835-0.576-1.627-0.844-2.448C346.363,246.819,345.958,246.032,345.628,245.237z"/>
		</g>
	</g>
	<g>
		<g>
			<path fill="#F2F2F2" d="M442.013,206.677c0.225,0.436,0.492,0.89,0.668,1.36c0.201,0.459,0.357,0.937,0.496,1.434
				c0.074,0.249,0.15,0.487,0.217,0.75l0.139,0.738l0.137,0.738c0.02,0.15,0.051,0.186,0.063,0.429l0.027,0.375l0.09,1.498
				c-0.021,0.629-0.002,1.008-0.07,1.585c-0.047,0.554-0.129,1.063-0.213,1.545c-0.084,0.582-0.234,0.996-0.348,1.503
				c-0.184,0.545-0.281,0.967-0.49,1.466l-0.289,0.719l-0.367,0.744c-0.105,0.224-0.227,0.447-0.355,0.671l-0.188,0.335
				l-0.094,0.168l-0.047,0.084l-0.1,0.158c-0.279,0.415-0.545,0.83-0.863,1.244l-0.232,0.309l-0.152,0.191l-0.121,0.143
				c-0.166,0.19-0.314,0.382-0.494,0.571l-1.123,1.135c-0.191,0.185-0.455,0.399-0.684,0.59l-0.559,0.437l-0.615,0.471l-0.605,0.443
				l-1.332-1.468l1.027-1.079l0.506-0.517l0.465-0.522l0.865-1.061c0.287-0.385,0.498-0.625,0.789-1.065l0.811-1.199l0.051-0.075
				l0.014-0.019l0.006-0.009l0.002-0.005c0.039-0.074-0.049,0.095-0.039,0.076l0.021-0.04l0.086-0.159l0.172-0.319l0.344-0.637
				l0.342-0.637l0.283-0.614c0.225-0.456,0.334-0.819,0.512-1.235l0.258-0.731l0.109-0.301l0.092-0.35l0.174-0.661l0.154-0.706
				l0.291-1.337l0.174-1.439l0.049-0.359c0.008-0.036,0.014-0.218,0.02-0.32l0.037-0.725l0.037-0.7l-0.02-0.726l-0.027-1.452
				C442.123,207.631,442.05,207.169,442.013,206.677z M442.013,206.677c0.131,0.457,0.307,0.931,0.387,1.408l0.275,1.424
				l0.135,0.712l0.07,0.745l0.064,0.721c0.01,0.139,0.021,0.198,0.029,0.403l0.004,0.362l-0.008,1.448l-0.002,0.09v0.023v0.011
				l-0.01,0.089l-0.004,0.045l-0.02,0.18l-0.039,0.361l-0.076,0.721l-0.078,0.721l-0.137,0.752l-0.063,0.357l-0.105,0.389
				l-0.176,0.649c-0.15,0.49-0.299,1.06-0.471,1.484c-0.092,0.246-0.146,0.409-0.277,0.719l-0.311,0.652l-0.313,0.652l-0.156,0.326
				l-0.078,0.163l-0.02,0.041l-0.064,0.12l-0.049,0.077l-0.75,1.235c-0.217,0.381-0.594,0.909-0.887,1.291l-0.947,1.194
				l-0.488,0.563l-0.496,0.525l-0.951,1.032l-1.332-1.468l1.186-0.872l0.633-0.476c0.148-0.134,0.281-0.226,0.453-0.383l1.006-0.975
				c0.168-0.17,0.33-0.371,0.494-0.555l0.123-0.141c0.006-0.005,0.074-0.089,0.027-0.028l0.057-0.071l0.229-0.282
				c0.311-0.362,0.605-0.776,0.902-1.176l0.027-0.038l0.008-0.009c-0.096,0.155-0.025,0.04-0.045,0.074l0.002-0.005l0.014-0.019
				l0.049-0.077l0.096-0.155l0.195-0.309c0.131-0.203,0.258-0.414,0.377-0.636l0.184-0.327l0.092-0.164l0.045-0.082l0.023-0.041
				l0.01-0.02l0.008-0.01c0.008-0.018-0.063,0.135-0.031,0.068l0.002-0.005l0.305-0.655c0.219-0.407,0.396-0.949,0.57-1.336
				c0.143-0.459,0.361-0.981,0.439-1.387l0.18-0.727l0.139-0.676c0.109-0.406,0.162-1.031,0.225-1.395l0.074-1.499l0.025-0.375
				c0.021-0.008-0.004-0.218-0.004-0.317l-0.033-0.751l-0.035-0.751l-0.09-0.717c-0.049-0.485-0.123-0.978-0.244-1.467
				C442.31,207.625,442.152,207.172,442.013,206.677z"/>
		</g>
	</g>
	<g>
		<g>
			<path fill="#F2F2F2" d="M265.385,381.731c-2.478-0.604-4.916-1.298-7.379-1.938l-3.67-0.99l-3.683-0.967l-1.832-0.426
				l-1.85-0.449l-1.813-0.441l-1.864-0.387l-0.466-0.098l-0.437-0.078l-0.936-0.174l-0.901-0.166l-0.942-0.14
				c-0.63-0.099-1.252-0.183-1.884-0.246l-1.856-0.2l0.076-1.99l0.958-0.031l0.239-0.008l0.309-0.002l0.48,0.004l0.989,0.011
				l0.958,0.059l0.958,0.06l1.005,0.123l0.952,0.117l0.521,0.069l0.472,0.087l1.887,0.35c0.734,0.158,1.275,0.301,1.922,0.451
				l0.933,0.223l0.959,0.271l1.839,0.547l3.648,1.316l1.82,0.686l1.754,0.785l1.747,0.805l0.873,0.401l0.868,0.474
				C263.16,380.456,264.275,381.088,265.385,381.731z M265.385,381.731c-1.202-0.452-2.4-0.915-3.59-1.393l-0.866-0.346l-0.91-0.305
				l-1.821-0.609l-1.813-0.629l-1.824-0.515l-3.651-1.056l-1.871-0.435l-0.897-0.217l-0.941-0.188l-1.828-0.36l-1.899-0.28
				L243,375.331l-0.431-0.051l-0.953-0.107l-0.9-0.102l-0.958-0.047l-0.958-0.047l-0.93,0.004l-0.48,0.002l-0.12,0.001
				c-0.018,0,0.126,0,0.062,0h-0.008l-0.015,0.001l-0.03,0.001l-0.06,0.003l-0.24,0.01l-0.96,0.039l0.076-1.99l1.927,0.232
				c0.63,0.072,1.264,0.166,1.887,0.27l0.94,0.15l0.969,0.191l0.934,0.186l0.497,0.104l0.462,0.114l1.849,0.455l1.869,0.526
				l1.83,0.525l1.849,0.551c1.201,0.403,2.422,0.769,3.614,1.207c1.196,0.422,2.409,0.86,3.589,1.308
				c1.181,0.463,2.383,0.894,3.555,1.385C263.043,380.732,264.216,381.226,265.385,381.731z"/>
		</g>
	</g>
	<g>
		<g>
			<path fill="#F2F2F2" d="M398.078,357.692c-0.387-0.501-0.836-0.947-1.258-1.42c-0.105-0.123-0.201-0.206-0.328-0.322l-0.35-0.32
				l-0.691-0.646c-0.445-0.448-0.945-0.823-1.441-1.222l-1.482-1.184l0.033,0.027c-0.709-0.466-1.41-0.975-2.129-1.381
				c-0.355-0.209-0.713-0.436-1.063-0.631l-1.119-0.609c-0.727-0.42-1.516-0.761-2.273-1.145c-0.744-0.36-1.566-0.694-2.283-0.959
				l-1.191-0.457l-0.566-0.217l-0.609-0.188l-2.438-0.755l-2.424-0.571c-0.836-0.217-1.635-0.346-2.434-0.493l-0.6-0.113
				l-0.652-0.104l-1.26-0.2c-0.844-0.121-1.596-0.183-2.457-0.281l-2.541-0.197l-1.271-0.1c-0.332-0.027-0.824-0.014-1.229-0.027
				l-2.551-0.045l-1.273-0.021l-0.318-0.005l-0.08-0.001c0.088-0.001-0.021,0.002-0.021,0.002l-0.16,0.007l-0.637,0.026
				l-5.105,0.199l-0.152-1.987c1.709-0.218,3.449-0.401,5.154-0.589l0.643-0.069l0.162-0.019l0.227-0.01l0.322-0.008l1.316-0.033
				l2.588-0.052l0.646-0.013l0.324-0.006l0.389,0.019l1.293,0.087l2.625,0.18c0.859,0.109,1.709,0.178,2.576,0.322l1.297,0.215
				l0.68,0.117l0.635,0.125c0.846,0.157,1.691,0.338,2.543,0.577l1.318,0.347c0.43,0.131,0.797,0.207,1.277,0.383l2.43,0.897
				c0.877,0.293,1.596,0.699,2.4,1.05l1.199,0.566l1.18,0.636c0.74,0.458,1.496,0.831,2.225,1.358l1.061,0.746
				c0.408,0.293,0.701,0.537,1.059,0.809c0.691,0.512,1.34,1.109,2.004,1.669l0.021,0.019l0,0c0.451,0.457,0.916,0.889,1.355,1.365
				c0.438,0.486,0.877,0.952,1.26,1.463l0.592,0.754l0.293,0.381c0.092,0.117,0.209,0.264,0.285,0.4
				C397.429,356.59,397.796,357.116,398.078,357.692z M398.078,357.692c-0.334-0.543-0.754-1.029-1.133-1.544
				c-0.094-0.134-0.188-0.226-0.307-0.351l-0.328-0.35l-0.648-0.703c-0.42-0.484-0.893-0.912-1.342-1.344
				c-0.459-0.43-0.961-0.833-1.439-1.251l0.021,0.019c-0.695-0.504-1.357-1.033-2.094-1.496c-0.348-0.227-0.744-0.502-1.053-0.689
				l-1.104-0.671c-0.693-0.454-1.514-0.812-2.264-1.222c-0.414-0.205-0.74-0.355-1.129-0.532l-1.168-0.478l-1.201-0.481l-0.6-0.245
				l-0.586-0.191l-2.461-0.804c-0.334-0.112-0.814-0.208-1.215-0.312l-1.197-0.266c-0.818-0.201-1.668-0.337-2.521-0.482
				l-0.639-0.11l-0.596-0.09l-1.262-0.181c-0.84-0.123-1.713-0.172-2.566-0.262l-2.545-0.113l-1.293-0.058l-0.162-0.008l-0.08-0.004
				l-0.041-0.002l-0.02-0.001c0.025,0-0.072-0.002,0.057,0h-0.01l-0.324,0.009l-0.646,0.019l-2.588,0.07l-1.271,0.042l-0.322,0.011
				l-0.082,0.004h-0.039l-0.02,0.002h-0.012c0.025-0.002-0.07,0.004,0.055-0.006l-0.16,0.02l-0.645,0.074l-5.129,0.619l-0.15-1.988
				l5.088-0.159l0.637-0.022l0.16-0.006l0.137-0.002l0.08,0.002l0.318,0.008l1.275,0.031l2.551,0.064
				c0.443,0.016,0.805,0.008,1.318,0.054l1.27,0.128l2.537,0.256c0.826,0.112,1.77,0.213,2.604,0.357l1.256,0.229l0.604,0.112
				l0.65,0.138c0.867,0.186,1.74,0.371,2.543,0.611l2.516,0.698l2.404,0.847l0.604,0.212c0.254,0.101,0.406,0.177,0.613,0.267
				l1.166,0.52c0.857,0.374,1.594,0.721,2.359,1.143c0.74,0.426,1.496,0.799,2.219,1.269c0.709,0.446,1.447,0.924,2.156,1.438
				c0.73,0.49,1.367,1.031,2.045,1.551l0.023,0.02l0.01,0.008l1.387,1.285c0.459,0.426,0.941,0.85,1.354,1.329l0.639,0.701
				l0.316,0.353c0.098,0.107,0.223,0.248,0.313,0.375C397.337,356.667,397.742,357.157,398.078,357.692z"/>
		</g>
	</g>
	<g>
		<g>
			<path fill="#F2F2F2" d="M496.154,241.346c-2.045,0.086-4.072,0.075-6.111,0.141l-1.527,0.024l-0.381,0.004
				c-0.049,0.002-0.162-0.001-0.158,0.004l-0.189,0.01l-0.762,0.041c-1.016,0.06-2.031,0.097-3.049,0.137
				c-0.236,0.012-0.545,0.016-0.723,0.034l-0.76,0.072l-1.52,0.138l-1.453,0.213l-0.727,0.105l-0.672,0.164l-0.74,0.178
				l-0.371,0.089l-0.184,0.045l-0.023,0.006l-0.012,0.003c0.031-0.009-0.08,0.022,0.07-0.02l-0.006,0.002l-0.045,0.016l-0.09,0.031
				L476,243.025c-0.219,0.085-0.387,0.175-0.584,0.258c-0.326,0.152-0.928,0.486-1.158,0.695c-0.057,0.046-0.203,0.142-0.189,0.145
				l-0.273,0.265l-0.137,0.132l-0.055,0.088c-0.037,0.056-0.076,0.108-0.123,0.158l-0.027,0.03l-0.029,0.055l-0.182,0.354
				l-0.049,0.087l-0.025,0.043c-0.012,0.024-0.008,0.006-0.035,0.066l-0.111,0.251l-1.877-0.649l0.143-0.574
				c0.01-0.072,0.082-0.236,0.131-0.358l0.172-0.387l-0.051,0.103c0.166-0.291,0.334-0.654,0.529-0.87l0.285-0.359l0.072-0.089
				l0.02-0.021l0.07-0.077l0.037-0.034l0.143-0.135c0.311-0.339,0.91-0.772,1.447-1.095l0.693-0.37
				c0.244-0.121,0.535-0.232,0.801-0.346l0.205-0.084l0.102-0.042l0.121-0.044l0.047-0.013l0.379-0.104l0.758-0.204l0.758-0.204
				l0.189-0.051l0.176-0.038l0.049-0.007l0.098-0.013l0.389-0.053l1.553-0.213l0.195-0.027l0.111-0.013l0.049-0.003l0.098-0.005
				l0.393-0.02l0.783-0.032l0.785-0.029l0.195-0.007l0.098-0.004l0.123-0.002l0.049,0.003l0.393,0.023
				c1.043,0.065,2.09,0.112,3.133,0.195c0.543,0.055,1.002,0.038,1.609,0.152l1.549,0.265l1.549,0.282
				c0.266,0.052,0.494,0.082,0.793,0.153l0.76,0.201l1.521,0.408C495.158,240.989,495.662,241.184,496.154,241.346z
				 M496.154,241.346c-0.527-0.07-1.029-0.164-1.555-0.199l-1.563-0.166l-0.781-0.086c-0.217-0.026-0.512-0.031-0.762-0.047
				l-1.57-0.082l-1.566-0.099c-0.428-0.049-1.02,0.012-1.521,0.012c-1.047,0.036-2.094,0.037-3.139,0.056l-0.393,0.006l-0.316,0.035
				l-0.781,0.086l-0.779,0.082l-0.391,0.037l-0.098,0.009l-0.049,0.005c-0.016,0.002,0.115-0.012,0.059-0.006l-0.006,0.001
				l-0.014,0.002l-0.023,0.004l-0.193,0.035l-1.543,0.281l-0.387,0.07l-0.096,0.018l-0.049,0.009l-0.012,0.002l-0.006,0.001
				c0.057-0.012-0.133,0.029,0.123-0.027l-0.023,0.007l-0.186,0.059l-0.748,0.236l-0.748,0.236l-0.375,0.116l-0.252,0.109
				c-0.213,0.095-0.414,0.165-0.637,0.277l-0.688,0.38c-0.34,0.239-0.623,0.38-1.027,0.812l-0.139,0.137l-0.035,0.034l-0.004,0.004
				c-0.051,0.052,0.063-0.066,0.049-0.052l-0.006,0.008l-0.012,0.016l-0.049,0.065l-0.199,0.256
				c-0.156,0.176-0.176,0.316-0.287,0.466l-0.035,0.047l-0.016,0.056c-0.012,0.046-0.027,0.089-0.047,0.132
				c-0.018,0.053-0.041,0.054-0.064,0.169l-0.131,0.518l-1.877-0.649l0.117-0.249l0.156-0.287l0.35-0.609l-0.057,0.085
				c0.107-0.152,0.221-0.303,0.338-0.449l0.178-0.215l0.139-0.131l0.277-0.261c0.189-0.184,0.27-0.211,0.412-0.322
				c0.57-0.418,0.873-0.563,1.461-0.85c0.271-0.116,0.561-0.248,0.82-0.341l0.727-0.227l0.092-0.027l0.045-0.014l0.102-0.027
				l0.021-0.005l0.188-0.037l0.375-0.073l0.748-0.146l0.816-0.159l0.789-0.08l1.572-0.157l1.525-0.041l0.764-0.017
				c0.328-0.005,0.529,0.013,0.799,0.018c1.018,0.033,2.033,0.063,3.051,0.116l0.764,0.035l0.189,0.009
				c0.133,0.004,0.146,0.011,0.225,0.016l0.381,0.034l1.518,0.143c1.008,0.111,2.031,0.19,3.039,0.344
				C494.136,241.035,495.144,241.187,496.154,241.346z"/>
		</g>
	</g>
</g>
</svg>
